<svg width="24" height="28" viewBox="0 0 24 28" fill="none" xmlns="http://www.w3.org/2000/svg">
<path d="M5.76923 3.80384L3 20.6268H5.76923M5.76923 3.80384L9.23077 2.40192M5.76923 3.80384L7.15385 12.2153M5.76923 20.6268L5.07692 24.8326C7.61538 26.4682 13.2462 28.758 18.2308 24.8326C17.5385 19.9259 17.5501 20.7333 17.5385 20.6268M5.76923 20.6268L7.15385 14.3182M17.5385 20.6268C18.8903 20.6268 21 20.6268 21 20.6268L18.2308 3.10288M17.5385 20.6268C17.2681 18.1632 16.8462 14.3182 16.8462 14.3182M18.2308 3.10288L14.7692 2.40192M18.2308 3.10288L16.8462 12.2153M14.7692 2.40192L14.0769 1M14.7692 2.40192L15.4615 5.20575L12.5192 9.41151M14.0769 1H9.92308M14.0769 1L11.8702 7.30863M9.92308 1L9.23077 2.40192M9.92308 1L11.8702 7.30863M9.23077 2.40192L8.53846 5.20575L13.3846 12.2153M7.15385 12.2153V14.3182M7.15385 12.2153H13.3846M7.15385 14.3182H16.8462M16.8462 12.2153V14.3182M16.8462 12.2153H13.3846M13.3846 12.2153L12.5192 9.41151M12.5192 9.41151L11.8702 7.30863" stroke="#4376E3" stroke-width="1.5" stroke-linecap="round" stroke-linejoin="round"/>
</svg>
