<svg width="20" height="20" viewBox="0 0 20 20" fill="none" xmlns="http://www.w3.org/2000/svg">
<path fill-rule="evenodd" clip-rule="evenodd" d="M6.39971 2.6665C7.06245 2.6665 7.59971 3.20376 7.59971 3.8665V15.8665C7.59971 16.5292 7.06245 17.0665 6.39971 17.0665C5.73697 17.0665 5.19971 16.5292 5.19971 15.8665V3.8665C5.19971 3.20376 5.73697 2.6665 6.39971 2.6665Z" fill="#393939"/>
<path fill-rule="evenodd" clip-rule="evenodd" d="M13.5999 2.6665C14.2626 2.6665 14.7999 3.20376 14.7999 3.8665V15.8665C14.7999 16.5292 14.2626 17.0665 13.5999 17.0665C12.9372 17.0665 12.3999 16.5292 12.3999 15.8665V3.8665C12.3999 3.20376 12.9372 2.6665 13.5999 2.6665Z" fill="#393939"/>
<path d="M8.8 6.8668C8.8 8.19228 7.72548 9.2668 6.4 9.2668C5.07452 9.2668 4 8.19228 4 6.8668C4 5.54131 5.07452 4.4668 6.4 4.4668C7.72548 4.4668 8.8 5.54131 8.8 6.8668Z" fill="white"/>
<path fill-rule="evenodd" clip-rule="evenodd" d="M6.4 8.0668C7.06274 8.0668 7.6 7.52954 7.6 6.8668C7.6 6.20406 7.06274 5.6668 6.4 5.6668C5.73726 5.6668 5.2 6.20406 5.2 6.8668C5.2 7.52954 5.73726 8.0668 6.4 8.0668ZM6.4 9.2668C7.72548 9.2668 8.8 8.19228 8.8 6.8668C8.8 5.54131 7.72548 4.4668 6.4 4.4668C5.07452 4.4668 4 5.54131 4 6.8668C4 8.19228 5.07452 9.2668 6.4 9.2668Z" fill="#393939"/>
<path d="M15.9997 12.8668C15.9997 14.1923 14.9252 15.2668 13.5997 15.2668C12.2742 15.2668 11.1997 14.1923 11.1997 12.8668C11.1997 11.5413 12.2742 10.4668 13.5997 10.4668C14.9252 10.4668 15.9997 11.5413 15.9997 12.8668Z" fill="white"/>
<path fill-rule="evenodd" clip-rule="evenodd" d="M13.5997 14.0668C14.2624 14.0668 14.7997 13.5295 14.7997 12.8668C14.7997 12.2041 14.2624 11.6668 13.5997 11.6668C12.937 11.6668 12.3997 12.2041 12.3997 12.8668C12.3997 13.5295 12.937 14.0668 13.5997 14.0668ZM13.5997 15.2668C14.9252 15.2668 15.9997 14.1923 15.9997 12.8668C15.9997 11.5413 14.9252 10.4668 13.5997 10.4668C12.2742 10.4668 11.1997 11.5413 11.1997 12.8668C11.1997 14.1923 12.2742 15.2668 13.5997 15.2668Z" fill="#393939"/>
</svg>
