<svg width="24" height="27" viewBox="0 0 24 27" fill="none" xmlns="http://www.w3.org/2000/svg">
<rect x="6.25" y="4.25" width="12.5" height="2.5" stroke="#4376E3" stroke-width="1.5" stroke-linejoin="round"/>
<path d="M7.13158 6.25C6.79827 6.25 6.50495 6.46997 6.4116 6.78994L3.28002 17.5233C3.22145 17.724 3.24934 17.9401 3.35696 18.1193C3.46457 18.2986 3.64214 18.4248 3.84683 18.4675L5.26917 18.7643L5.07506 19.3717C5.00738 19.5835 5.03717 19.8144 5.1564 20.0021C5.27563 20.1898 5.472 20.315 5.6925 20.3437L8.61842 20.7252V21C8.61842 21.4142 8.95421 21.75 9.36842 21.75H15.1842C15.5984 21.75 15.9342 21.4142 15.9342 21V20.7252L18.8601 20.3437C19.2337 20.295 19.5132 19.9767 19.5132 19.6V18.8097L21.1532 18.4675C21.3579 18.4248 21.5354 18.2986 21.643 18.1193C21.7507 17.9401 21.7785 17.724 21.72 17.5233L18.5884 6.78994C18.495 6.46997 18.2017 6.25 17.8684 6.25H7.13158Z" stroke="#4376E3" stroke-width="1.5" stroke-linejoin="round"/>
<path d="M6 19.5L7.5 13" stroke="#4376E3" stroke-width="1.5" stroke-linecap="round"/>
<path d="M9 21L10 15" stroke="#4376E3" stroke-width="1.5" stroke-linecap="round"/>
<path d="M19 20L17.5 13" stroke="#4376E3" stroke-width="1.5" stroke-linecap="round"/>
<path d="M14.999 21.0384L14.2661 15" stroke="#4376E3" stroke-width="1.5" stroke-linecap="round"/>
</svg>
